<?xml version="1.0" standalone="no"?>
<!DOCTYPE svg PUBLIC "-//W3C//DTD SVG 20010904//EN"
 "http://www.w3.org/TR/2001/REC-SVG-20010904/DTD/svg10.dtd">
<svg version="1.0" xmlns="http://www.w3.org/2000/svg"
 width="500.000000pt" height="500.000000pt" viewBox="0 0 500.000000 500.000000"
 preserveAspectRatio="xMidYMid meet">

<g transform="translate(0.000000,500.000000) scale(0.100000,-0.100000)"
fill="#000000" stroke="none">
<path d="M2275 3794 c-288 -64 -524 -291 -596 -572 -27 -106 -26 -290 1 -398
68 -264 256 -466 518 -557 79 -27 101 -30 237 -33 83 -2 160 -6 171 -9 12 -2
27 -19 34 -36 16 -37 66 -89 87 -89 13 0 14 3 1 23 -8 12 -22 43 -32 70 -10
26 -22 47 -27 47 -20 0 -7 18 17 24 49 13 168 74 223 115 42 32 58 38 72 31
24 -13 32 -13 23 2 -4 7 -3 8 5 4 6 -4 9 -12 5 -17 -8 -13 81 -51 113 -47 24
3 22 6 -33 47 -32 24 -49 32 -36 19 12 -13 19 -28 15 -33 -5 -4 -3 -6 2 -2 6
3 21 -1 35 -9 25 -15 24 -15 -10 -8 -44 8 -72 22 -65 33 8 14 -21 32 -40 25
-13 -5 -16 -3 -13 7 3 8 14 14 26 13 12 0 19 3 17 7 -7 10 53 33 91 33 19 1
34 5 34 10 0 5 7 3 15 -4 8 -7 15 -9 15 -5 0 5 10 0 23 -11 l22 -19 -19 23
c-20 23 -10 32 12 10 14 -14 44 -20 36 -7 -3 5 -10 6 -16 3 -7 -5 -8 -2 -3 6
6 10 14 6 33 -16 13 -16 21 -24 18 -17 -9 17 15 28 25 12 5 -8 9 -10 9 -5 0 5
7 3 15 -4 8 -7 21 -10 30 -7 8 4 21 0 29 -8 16 -16 26 -19 26 -7 0 4 -19 18
-41 30 -23 13 -38 19 -35 13 10 -15 5 -14 -45 9 -50 22 -119 27 -119 8 0 -10
-3 -10 -9 0 -5 8 -20 15 -33 15 -24 2 -24 3 -9 24 9 12 30 28 46 35 17 7 58
41 93 76 34 35 62 61 62 57 0 -15 -57 -79 -85 -97 -16 -10 -25 -18 -19 -18 19
0 61 38 98 89 42 57 45 71 14 70 -18 -1 -19 -2 -5 -6 23 -6 16 -28 -9 -28 -10
0 -22 -8 -26 -18 -4 -10 -12 -16 -17 -13 -5 3 -12 -5 -15 -19 -4 -14 -11 -25
-17 -25 -8 0 -8 4 -1 13 7 8 7 18 2 27 -8 12 -10 11 -10 -6 0 -25 -29 -67 -30
-44 0 12 -3 11 -11 -2 -11 -19 -29 -24 -29 -8 0 20 66 84 105 101 22 10 34 19
27 19 -43 1 -135 -86 -146 -137 -9 -41 -60 -100 -107 -124 l-39 -20 49 62 c95
118 155 261 170 406 39 385 -181 728 -544 848 -103 35 -300 44 -410 19z m352
-19 c133 -31 291 -122 385 -223 216 -231 270 -582 134 -867 -35 -75 -124 -201
-133 -191 -3 3 -12 -2 -19 -12 -11 -15 -12 -14 -11 10 1 14 5 24 9 22 3 -2 15
23 27 57 15 44 16 58 6 49 -7 -6 -16 -29 -20 -51 -4 -21 -12 -39 -18 -39 -7 0
-22 -22 -35 -49 -19 -40 -35 -57 -83 -85 -62 -37 -82 -45 -61 -24 19 19 14 28
-15 27 -25 -2 -25 -2 -5 -6 19 -4 21 -7 11 -19 -6 -8 -8 -14 -4 -14 4 0 1 -7
-6 -16 -8 -9 12 0 43 20 31 20 63 36 70 36 7 0 -16 -19 -50 -41 -35 -22 -66
-38 -69 -35 -3 3 -17 -3 -31 -14 -13 -11 -28 -17 -32 -15 -5 3 -11 1 -15 -5
-3 -5 -11 -10 -17 -10 -7 0 0 12 15 28 19 20 24 31 17 42 -8 13 -10 12 -10 -2
0 -10 -5 -18 -11 -18 -5 0 -7 -5 -4 -11 4 -6 -2 -13 -14 -16 -12 -3 -21 -9
-21 -14 0 -5 -7 -6 -15 -3 -8 4 -12 11 -8 17 4 6 1 7 -6 3 -7 -5 -10 -14 -7
-22 3 -8 2 -13 -2 -12 -4 1 -18 -3 -32 -9 -14 -6 -64 -13 -111 -17 -340 -25
-660 198 -775 539 -39 115 -45 295 -15 415 63 251 226 440 464 538 40 17 99
35 132 41 33 6 71 13 85 15 42 8 190 -4 257 -19z m338 -1335 c-3 -5 -12 -10
-18 -10 -7 0 -6 4 3 10 19 12 23 12 15 0z m-296 -215 c11 -14 23 -39 26 -55 4
-17 11 -32 16 -35 5 -4 9 -11 9 -17 0 -6 -9 -3 -20 7 -11 10 -17 22 -14 26 3
5 -2 9 -11 9 -11 0 -15 5 -12 14 3 8 -2 17 -11 21 -14 5 -14 7 -2 15 13 8 13
10 -1 10 -9 0 -19 7 -23 15 -9 25 21 17 43 -10z"/>
<path d="M2294 3175 c0 -82 2 -117 3 -77 l4 72 89 0 89 0 4 -72 c1 -40 3 -5 3
77 0 83 -1 120 -3 83 l-4 -68 -89 0 -89 0 -4 68 c-2 37 -3 0 -3 -83z"/>
<path d="M2558 3193 l53 -4 -3 -117 -3 -117 -90 -6 c-51 -3 -70 -6 -42 -7 l47
-2 0 -140 c0 -87 4 -140 10 -140 6 0 10 53 10 140 l0 140 35 0 c26 0 35 -4 35
-17 0 -9 3 -14 6 -10 3 3 5 66 5 141 l-2 135 48 4 c26 2 1 3 -57 3 -58 0 -81
-1 -52 -3z"/>
<path d="M3013 2650 c-23 -17 -44 -37 -47 -46 -3 -8 9 -1 26 17 18 17 46 38
63 45 16 7 23 13 14 14 -8 0 -33 -14 -56 -30z"/>
<path d="M3056 2645 c-9 -26 -7 -32 5 -12 6 10 9 21 6 23 -2 3 -7 -2 -11 -11z"/>
<path d="M3031 2579 c-6 -18 -11 -37 -10 -43 0 -6 7 7 15 28 8 22 12 41 10 43
-2 2 -9 -10 -15 -28z"/>
<path d="M2498 2553 c17 -2 47 -2 65 0 17 2 3 4 -33 4 -36 0 -50 -2 -32 -4z"/>
<path d="M2941 2534 c0 -11 3 -14 6 -6 3 7 2 16 -1 19 -3 4 -6 -2 -5 -13z"/>
<path d="M2659 2343 l-24 -28 28 24 c25 23 32 31 24 31 -2 0 -14 -12 -28 -27z"/>
<path d="M2743 2363 c-20 -7 -15 -23 5 -16 13 5 11 -1 -8 -23 l-25 -29 32 29
c38 34 35 55 -4 39z"/>
<path d="M3158 2523 c6 -2 18 -2 25 0 6 3 1 5 -13 5 -14 0 -19 -2 -12 -5z"/>
<path d="M3223 2523 c9 -2 23 -2 30 0 6 3 -1 5 -18 5 -16 0 -22 -2 -12 -5z"/>
<path d="M3270 2517 c0 -3 15 -10 32 -16 18 -6 28 -7 23 -2 -12 10 -55 25 -55
18z"/>
<path d="M3145 2459 c22 -10 47 -18 55 -18 8 0 -7 9 -35 19 -63 25 -73 24 -20
-1z"/>
<path d="M3228 2433 c7 -3 16 -2 19 1 4 3 -2 6 -13 5 -11 0 -14 -3 -6 -6z"/>
<path d="M3278 2423 c7 -3 16 -2 19 1 4 3 -2 6 -13 5 -11 0 -14 -3 -6 -6z"/>
<path d="M2973 2343 c9 -2 23 -2 30 0 6 3 -1 5 -18 5 -16 0 -22 -2 -12 -5z"/>
<path d="M2910 2330 c-18 -12 -2 -12 25 0 13 6 15 9 5 9 -8 0 -22 -4 -30 -9z"/>
<path d="M3048 2329 c15 -5 21 -14 16 -21 -5 -10 -4 -10 7 0 12 11 12 14 -1
22 -8 5 -22 9 -30 9 -8 0 -5 -4 8 -10z"/>
<path d="M2853 2297 c-15 -13 -36 -28 -45 -33 -11 -6 13 -9 72 -9 49 0 91 3
95 7 4 3 -11 5 -32 3 -21 -1 -28 0 -15 2 12 2 20 8 17 13 -3 4 5 7 18 7 12 -1
33 2 47 6 l25 8 -25 -15 c-30 -18 -21 -21 14 -4 24 10 24 12 8 24 -9 7 -21 9
-27 5 -13 -9 -26 -8 -44 3 -9 6 -12 5 -8 -1 4 -6 -5 -15 -21 -20 -24 -7 -34
-8 -66 -4 -6 0 -1 8 10 16 10 8 16 15 12 15 -3 0 -19 -11 -35 -23z"/>
<path d="M2725 2240 c-30 -5 -33 -8 -13 -9 19 -1 40 -17 73 -56 44 -51 100
-95 121 -95 5 0 -9 11 -31 24 -22 14 -57 45 -78 70 -38 46 -38 59 -1 31 10 -8
25 -15 32 -15 16 0 42 -24 42 -39 0 -6 11 -13 25 -17 14 -3 25 -9 25 -13 0 -3
7 -14 15 -25 19 -24 39 -12 24 15 -6 12 -13 18 -16 15 -8 -7 -33 13 -33 26 0
6 8 4 18 -3 9 -7 4 2 -13 20 -34 37 -81 65 -95 56 -6 -4 -17 1 -26 9 -8 9 -18
15 -22 15 -4 -1 -25 -5 -47 -9z m134 -34 c15 -8 34 -23 42 -32 8 -11 -1 -7
-25 9 -22 14 -43 24 -48 21 -4 -3 -8 0 -8 5 0 14 6 14 39 -3z m95 -102 c3 -8
2 -12 -4 -9 -6 3 -10 10 -10 16 0 14 7 11 14 -7z"/>
<path d="M2977 2066 c5 -17 4 -17 -18 -6 l-24 13 25 -26 c14 -15 31 -27 38
-27 8 0 12 -17 12 -50 0 -27 5 -50 10 -50 6 0 10 23 10 50 0 38 4 50 15 50 8
0 15 5 15 10 0 6 -13 10 -29 10 -18 0 -34 8 -45 23 -12 17 -14 17 -9 3z"/>
<path d="M1540 1980 c0 -33 4 -60 10 -60 6 0 10 11 10 25 0 21 5 25 29 25 25
0 30 -5 34 -27 2 -16 4 1 4 37 0 36 -2 53 -4 38 -4 -23 -9 -28 -34 -28 -24 0
-29 4 -29 25 0 14 -4 25 -10 25 -6 0 -10 -27 -10 -60z"/>
<path d="M1680 2021 c-14 -26 -13 -74 2 -89 7 -7 24 -12 38 -12 36 0 50 17 50
60 0 20 -5 41 -12 48 -19 19 -66 15 -78 -7z m76 -25 c8 -34 -12 -68 -39 -64
-18 2 -23 11 -25 46 -3 41 -2 42 27 42 24 0 32 -5 37 -24z"/>
<path d="M1842 2019 c-5 -13 -17 -41 -25 -61 -9 -21 -12 -38 -6 -38 5 0 12 7
15 15 4 8 17 15 30 15 14 0 27 -7 30 -15 4 -8 10 -15 15 -15 9 0 -26 99 -41
114 -6 6 -13 -1 -18 -15z m28 -46 c0 -7 -7 -13 -15 -13 -16 0 -19 9 -9 35 5
13 8 14 15 3 5 -7 9 -19 9 -25z"/>
<path d="M1940 1980 c0 -33 4 -60 10 -60 6 0 10 19 10 43 l0 42 28 -42 c15
-24 30 -43 35 -43 4 0 6 28 5 63 l-1 62 -6 -50 -6 -50 -30 47 c-16 27 -33 48
-37 48 -5 0 -8 -27 -8 -60z"/>
<path d="M2080 2021 c-14 -26 -13 -74 2 -89 7 -7 24 -12 38 -12 30 0 50 17 50
42 0 13 -7 18 -27 17 -18 -1 -22 -3 -10 -6 27 -7 17 -38 -13 -38 -22 0 -25 5
-28 43 -3 41 -2 42 27 42 16 0 31 -6 34 -12 2 -7 8 -10 12 -6 14 13 -17 38
-46 38 -18 0 -32 -7 -39 -19z"/>
<path d="M2260 2030 c0 -5 9 -10 20 -10 17 0 20 -7 20 -50 0 -27 5 -50 10 -50
6 0 10 23 10 50 0 38 4 50 15 50 8 0 15 5 15 10 0 6 -20 10 -45 10 -25 0 -45
-4 -45 -10z"/>
<path d="M2388 2034 c-12 -11 -10 -114 2 -114 6 0 10 11 10 25 0 21 5 25 30
25 25 0 30 -4 30 -25 0 -14 5 -25 10 -25 6 0 10 27 10 60 0 33 -4 60 -10 60
-5 0 -10 -11 -10 -25 0 -21 -5 -25 -29 -25 -24 0 -30 5 -33 26 -2 14 -6 22
-10 18z"/>
<path d="M2552 2019 c-5 -13 -17 -41 -25 -61 -9 -21 -12 -38 -6 -38 5 0 12 7
15 15 4 8 17 15 30 15 14 0 27 -7 30 -15 4 -8 10 -15 15 -15 9 0 -26 99 -41
114 -6 6 -13 -1 -18 -15z m28 -46 c0 -7 -7 -13 -15 -13 -16 0 -19 9 -9 35 5
13 8 14 15 3 5 -7 9 -19 9 -25z"/>
<path d="M2650 1980 c0 -33 4 -60 10 -60 6 0 10 19 10 43 l0 42 28 -42 c15
-24 30 -43 35 -43 4 0 6 28 5 63 l-1 62 -6 -50 -6 -50 -30 47 c-16 27 -33 48
-37 48 -5 0 -8 -27 -8 -60z"/>
<path d="M2788 2034 c-12 -11 -10 -114 2 -114 6 0 10 11 10 25 0 21 5 25 30
25 25 0 30 -4 30 -25 0 -14 5 -25 10 -25 6 0 10 27 10 60 0 33 -4 60 -10 60
-5 0 -10 -11 -10 -25 0 -21 -5 -25 -29 -25 -24 0 -30 5 -33 26 -2 14 -6 22
-10 18z"/>
<path d="M3104 1985 l1 -60 34 -3 c42 -4 51 9 50 73 l-2 50 -6 -47 c-13 -90
-61 -91 -72 -2 -6 49 -6 49 -5 -11z"/>
<path d="M3230 1980 c0 -68 17 -82 22 -18 l3 42 28 -42 c15 -23 32 -42 37 -42
13 0 13 107 0 115 -6 4 -10 -12 -10 -42 l0 -48 -31 48 c-17 26 -35 47 -40 47
-5 0 -9 -27 -9 -60z"/>
<path d="M3376 2024 c-19 -19 -21 -64 -3 -88 9 -12 23 -17 47 -14 30 2 35 7
38 31 3 24 0 27 -25 26 -23 -2 -24 -2 -5 -6 12 -2 22 -8 22 -12 0 -17 -30 -32
-50 -26 -17 5 -21 13 -18 43 2 30 7 38 26 40 13 2 30 -2 38 -8 17 -15 19 1 2
18 -17 17 -54 15 -72 -4z"/>
<path d="M1895 1750 c0 -16 3 -30 8 -30 4 0 7 14 7 30 0 17 -3 30 -7 30 -5 0
-8 -13 -8 -30z"/>
<path d="M1955 1750 c0 -16 3 -30 8 -30 4 0 7 5 7 11 0 8 6 7 18 -2 15 -12 16
-12 5 2 -9 11 -9 19 -2 26 8 8 7 13 -2 18 -7 5 -10 4 -5 -3 3 -6 2 -13 -4 -17
-5 -3 -10 1 -10 9 0 9 -3 16 -7 16 -5 0 -8 -13 -8 -30z"/>
<path d="M2027 1773 c-9 -9 -9 -41 1 -46 4 -3 7 8 7 24 0 16 0 29 -1 29 0 0
-4 -3 -7 -7z"/>
<path d="M2065 1750 c0 -15 3 -26 8 -23 4 2 7 13 7 23 0 10 -3 21 -7 23 -5 3
-8 -8 -8 -23z"/>
<path d="M2100 1777 c0 -3 11 -18 25 -33 14 -15 25 -23 25 -17 0 5 -11 20 -25
33 -14 13 -25 21 -25 17z"/>
<path d="M2192 1750 c0 -19 2 -27 5 -17 2 9 2 25 0 35 -3 9 -5 1 -5 -18z"/>
<path d="M2272 1750 c0 -19 2 -27 5 -17 2 9 2 25 0 35 -3 9 -5 1 -5 -18z"/>
<path d="M2350 1755 c13 -14 25 -25 27 -25 2 0 -4 11 -13 25 -9 14 -21 25 -27
25 -6 0 0 -11 13 -25z"/>
<path d="M2412 1750 c0 -19 2 -27 5 -17 2 9 2 25 0 35 -3 9 -5 1 -5 -18z"/>
<path d="M2445 1750 c0 -15 3 -26 8 -23 4 2 7 13 7 23 0 10 -3 21 -7 23 -5 3
-8 -8 -8 -23z"/>
<path d="M2522 1750 c0 -19 2 -27 5 -17 2 9 2 25 0 35 -3 9 -5 1 -5 -18z"/>
<path d="M2555 1750 c0 -15 3 -26 8 -23 4 2 7 13 7 23 0 10 -3 21 -7 23 -5 3
-8 -8 -8 -23z"/>
<path d="M2590 1750 c0 -16 3 -30 8 -30 4 0 7 14 7 30 1 17 -3 30 -7 30 -4 0
-8 -13 -8 -30z"/>
<path d="M2662 1755 c6 -14 15 -25 19 -25 4 0 2 11 -4 25 -7 14 -15 25 -19 25
-4 0 -2 -11 4 -25z"/>
<path d="M2732 1750 c0 -19 2 -27 5 -17 2 9 2 25 0 35 -3 9 -5 1 -5 -18z"/>
<path d="M2795 1750 c0 -16 3 -30 8 -30 4 0 7 14 7 30 0 17 -3 30 -7 30 -5 0
-8 -13 -8 -30z"/>
<path d="M2867 1773 c-9 -9 -9 -41 1 -46 4 -3 7 8 7 24 0 16 0 29 -1 29 0 0
-4 -3 -7 -7z"/>
<path d="M2895 1750 c0 -15 3 -26 8 -23 4 2 7 13 7 23 0 10 -3 21 -7 23 -5 3
-8 -8 -8 -23z"/>
<path d="M2935 1750 c0 -16 3 -30 8 -30 4 0 7 14 7 30 0 17 -3 30 -7 30 -5 0
-8 -13 -8 -30z"/>
<path d="M2963 1765 c0 -8 4 -12 9 -9 5 3 6 10 3 15 -9 13 -12 11 -12 -6z"/>
<path d="M2995 1750 c0 -16 3 -30 8 -30 4 0 7 14 7 30 0 17 -3 30 -7 30 -5 0
-8 -13 -8 -30z"/>
<path d="M3062 1750 c0 -19 2 -27 5 -17 2 9 2 25 0 35 -3 9 -5 1 -5 -18z"/>
<path d="M3088 1763 c-6 -23 1 -43 13 -43 6 0 7 6 2 13 -4 6 -6 20 -5 30 2 9
1 17 -1 17 -3 0 -7 -8 -9 -17z"/>
</g>
</svg>
